<?xml version="1.0" encoding="iso-8859-1"?>
<!-- Generator: Adobe Illustrator 19.0.0, SVG Export Plug-In . SVG Version: 6.00 Build 0)  -->
<svg version="1.1" id="Layer_1" xmlns="http://www.w3.org/2000/svg" xmlns:xlink="http://www.w3.org/1999/xlink" x="0px" y="0px"
	 viewBox="0 0 512 512" style="enable-background:new 0 0 512 512;" xml:space="preserve">
<g>
	<path style="fill:#E1705C;" d="M512,256C512,114.617,397.383,0,256,0S0,114.617,0,256s114.617,256,256,256S512,397.383,512,256"/>
	<path style="fill:#556080;" d="M329.056,97.103H182.942l-24.346,61.793h-56.196c-12.676,0-22.952,10.275-22.952,22.952v174.407
		c0,12.879,10.452,23.331,23.34,23.331H409.22c12.888,0,23.331-10.452,23.331-23.331V181.848c0-12.676-10.275-22.952-22.952-22.952
		h-56.188L329.056,97.103z"/>
	<g>
		<path style="fill:#8B9BC1;" d="M326.621,256c0-39-31.62-70.621-70.621-70.621S185.379,217,185.379,256S217,326.621,256,326.621
			S326.621,295,326.621,256"/>
		<path style="fill:#8B9BC1;" d="M406.069,203.034c0-9.754-7.901-17.655-17.655-17.655s-17.655,7.901-17.655,17.655
			c0,9.754,7.901,17.655,17.655,17.655S406.069,212.789,406.069,203.034"/>
	</g>
	<polygon style="fill:#FFFFFF;" points="80.621,442.707 68.191,430.172 431.87,69.786 444.299,82.321 	"/>
</g>
<g>
</g>
<g>
</g>
<g>
</g>
<g>
</g>
<g>
</g>
<g>
</g>
<g>
</g>
<g>
</g>
<g>
</g>
<g>
</g>
<g>
</g>
<g>
</g>
<g>
</g>
<g>
</g>
<g>
</g>
</svg>
